<?xml version="1.0" encoding="UTF-8"?>
<svg xmlns="http://www.w3.org/2000/svg" xmlns:xlink="http://www.w3.org/1999/xlink" width="4000" height="2500" viewBox="0 0 4000 2500">
<defs>
<linearGradient id="linear-pattern-0" gradientUnits="userSpaceOnUse" x1="0.000000000000000111" y1="0" x2="1" y2="0" gradientTransform="matrix(3250, -3250, 3250, 3250, 375, 2875)">
<stop offset="0" stop-color="rgb(85.496521%, 85.667419%, 85.554504%)" stop-opacity="1"/>
<stop offset="0.015625" stop-color="rgb(85.68573%, 85.719299%, 85.559082%)" stop-opacity="1"/>
<stop offset="0.03125" stop-color="rgb(86.068726%, 86.003113%, 85.809326%)" stop-opacity="1"/>
<stop offset="0.0625" stop-color="rgb(86.457825%, 86.468506%, 86.303711%)" stop-opacity="1"/>
<stop offset="0.078125" stop-color="rgb(86.839294%, 86.764526%, 86.57074%)" stop-opacity="1"/>
<stop offset="0.09375" stop-color="rgb(87.049866%, 87.002563%, 86.820984%)" stop-opacity="1"/>
<stop offset="0.109375" stop-color="rgb(87.243652%, 87.242126%, 87.078857%)" stop-opacity="1"/>
<stop offset="0.125" stop-color="rgb(87.442017%, 87.478638%, 87.330627%)" stop-opacity="1"/>
<stop offset="0.140625" stop-color="rgb(87.637329%, 87.718201%, 87.588501%)" stop-opacity="1"/>
<stop offset="0.15625" stop-color="rgb(87.998962%, 88.002014%, 87.846375%)" stop-opacity="1"/>
<stop offset="0.171875" stop-color="rgb(88.232422%, 88.40332%, 88.171387%)" stop-opacity="1"/>
<stop offset="0.1875" stop-color="rgb(88.42926%, 88.674927%, 88.439941%)" stop-opacity="1"/>
<stop offset="0.203125" stop-color="rgb(88.62915%, 88.91449%, 88.699341%)" stop-opacity="1"/>
<stop offset="0.21875" stop-color="rgb(88.825989%, 89.157104%, 88.957214%)" stop-opacity="1"/>
<stop offset="0.234375" stop-color="rgb(89.167786%, 89.299011%, 89.163208%)" stop-opacity="1"/>
<stop offset="0.25" stop-color="rgb(89.407349%, 89.506531%, 89.268494%)" stop-opacity="1"/>
<stop offset="0.265625" stop-color="rgb(89.604187%, 89.749146%, 89.486694%)" stop-opacity="1"/>
<stop offset="0.28125" stop-color="rgb(89.944458%, 90.031433%, 89.753723%)" stop-opacity="1"/>
<stop offset="0.296875" stop-color="rgb(90.197754%, 90.292358%, 90.0177%)" stop-opacity="1"/>
<stop offset="0.3125" stop-color="rgb(90.394592%, 90.534973%, 90.281677%)" stop-opacity="1"/>
<stop offset="0.328125" stop-color="rgb(90.596008%, 90.782166%, 90.545654%)" stop-opacity="1"/>
<stop offset="0.34375" stop-color="rgb(90.792847%, 91.02478%, 90.811157%)" stop-opacity="1"/>
<stop offset="0.359375" stop-color="rgb(91.120911%, 91.31012%, 91.079712%)" stop-opacity="1"/>
<stop offset="0.375" stop-color="rgb(91.389465%, 91.575623%, 91.349792%)" stop-opacity="1"/>
<stop offset="0.390625" stop-color="rgb(91.58783%, 91.824341%, 91.616821%)" stop-opacity="1"/>
<stop offset="0.40625" stop-color="rgb(91.899109%, 91.992188%, 91.841125%)" stop-opacity="1"/>
<stop offset="0.421875" stop-color="rgb(92.173767%, 92.189026%, 92.079163%)" stop-opacity="1"/>
<stop offset="0.4375" stop-color="rgb(92.372131%, 92.43927%, 92.350769%)" stop-opacity="1"/>
<stop offset="0.453125" stop-color="rgb(92.575073%, 92.686462%, 92.617798%)" stop-opacity="1"/>
<stop offset="0.46875" stop-color="rgb(92.774963%, 92.938232%, 92.892456%)" stop-opacity="1"/>
<stop offset="0.484375" stop-color="rgb(92.979431%, 93.186951%, 93.161011%)" stop-opacity="1"/>
<stop offset="0.5" stop-color="rgb(93.177795%, 93.438721%, 93.435669%)" stop-opacity="1"/>
<stop offset="0.515625" stop-color="rgb(93.476868%, 93.717957%, 93.710327%)" stop-opacity="1"/>
<stop offset="0.53125" stop-color="rgb(93.870544%, 94.029236%, 93.995667%)" stop-opacity="1"/>
<stop offset="0.546875" stop-color="rgb(94.17572%, 94.311523%, 94.271851%)" stop-opacity="1"/>
<stop offset="0.5625" stop-color="rgb(94.37561%, 94.566345%, 94.551086%)" stop-opacity="1"/>
<stop offset="0.578125" stop-color="rgb(94.664001%, 94.844055%, 94.828796%)" stop-opacity="1"/>
<stop offset="0.59375" stop-color="rgb(94.978333%, 95.133972%, 95.114136%)" stop-opacity="1"/>
<stop offset="0.609375" stop-color="rgb(95.179749%, 95.385742%, 95.388794%)" stop-opacity="1"/>
<stop offset="0.625" stop-color="rgb(95.46051%, 95.66803%, 95.675659%)" stop-opacity="1"/>
<stop offset="0.640625" stop-color="rgb(95.779419%, 95.887756%, 95.927429%)" stop-opacity="1"/>
<stop offset="0.65625" stop-color="rgb(95.973206%, 96.02356%, 96.156311%)" stop-opacity="1"/>
<stop offset="0.6875" stop-color="rgb(96.246338%, 96.362305%, 96.463013%)" stop-opacity="1"/>
<stop offset="0.71875" stop-color="rgb(96.646118%, 96.809387%, 96.868896%)" stop-opacity="1"/>
<stop offset="0.734375" stop-color="rgb(96.986389%, 97.111511%, 97.291565%)" stop-opacity="1"/>
<stop offset="0.75" stop-color="rgb(97.189331%, 97.369385%, 97.525024%)" stop-opacity="1"/>
<stop offset="0.765625" stop-color="rgb(97.396851%, 97.621155%, 97.666931%)" stop-opacity="1"/>
<stop offset="0.78125" stop-color="rgb(97.599792%, 97.88208%, 97.955322%)" stop-opacity="1"/>
<stop offset="0.8125" stop-color="rgb(97.845459%, 98.150635%, 98.236084%)" stop-opacity="1"/>
<stop offset="0.84375" stop-color="rgb(98.23761%, 98.472595%, 98.536682%)" stop-opacity="1"/>
<stop offset="0.859375" stop-color="rgb(98.603821%, 98.780823%, 98.826599%)" stop-opacity="1"/>
<stop offset="0.875" stop-color="rgb(98.808289%, 99.0448%, 99.119568%)" stop-opacity="1"/>
<stop offset="0.90625" stop-color="rgb(99.03717%, 99.308777%, 99.403381%)" stop-opacity="1"/>
<stop offset="0.9375" stop-color="rgb(99.430847%, 99.635315%, 99.708557%)" stop-opacity="1"/>
<stop offset="1" stop-color="rgb(99.816895%, 99.940491%, 99.987793%)" stop-opacity="1"/>
</linearGradient>
</defs>
<path fill-rule="nonzero" fill="url(#linear-pattern-0)" d="M -1250 1250 L 2000 4500 L 5250 1250 L 2000 -2000 Z M -1250 1250 "/>
<path fill-rule="nonzero" fill="rgb(40.106201%, 73.191833%, 91.976929%)" fill-opacity="1" d="M 3937.941406 2686.320312 C 3936.371094 2686.320312 3934.800781 2686.28125 3933.238281 2686.199219 C 3741.011719 2676.488281 3632.929688 2065.5 3518.519531 1418.628906 C 3397.28125 733.21875 3271.921875 24.46875 3037.851562 2.960938 C 3034.191406 2.621094 3030.511719 2.460938 3026.808594 2.460938 C 2871.738281 2.460938 2685.359375 298.738281 2457.578125 907.078125 C 2135.210938 1768.019531 1898.359375 2187.398438 1734.289062 2187.441406 C 1730.210938 2187.449219 1726.191406 2187.191406 1722.199219 2186.671875 C 1541.140625 2163.171875 1485.851562 1612.851562 1437.078125 1127.320312 C 1400.839844 766.570312 1366.609375 425.828125 1285.058594 414.878906 C 1241.5 408.980469 1186.039062 495.160156 1115.648438 678.210938 C 1041.898438 870 974.175781 963.390625 908.753906 963.390625 C 907.484375 963.390625 906.230469 963.359375 904.964844 963.289062 C 776.761719 956.210938 680.441406 589.46875 578.460938 201.191406 C 468.003906 -219.378906 353.785156 -654.28125 192.007812 -654.828125 C 191.910156 -654.828125 191.792969 -654.828125 191.695312 -654.828125 C 45.917969 -654.828125 -121.058594 -298.898438 -318.800781 433.351562 L -322.417969 432.371094 C -124.1875 -301.699219 43.992188 -658.578125 191.703125 -658.578125 C 191.8125 -658.578125 191.910156 -658.578125 192.019531 -658.578125 C 356.679688 -658.019531 471.273438 -221.699219 582.089844 200.238281 C 683.707031 587.160156 779.691406 952.621094 905.171875 959.539062 C 969.875 963.109375 1037.640625 870.648438 1112.148438 676.871094 C 1183.25 491.960938 1239.898438 405.039062 1285.558594 411.160156 C 1370.039062 422.511719 1402.828125 748.949219 1440.808594 1126.941406 C 1489.449219 1611.089844 1544.570312 2159.828125 1722.679688 2182.949219 C 1798.480469 2192.800781 1893.378906 2103.351562 2004.769531 1917.121094 C 2130.03125 1707.699219 2281.199219 1367.429688 2454.058594 905.761719 C 2687.949219 281.140625 2878.921875 -15.371094 3038.191406 -0.769531 C 3275.121094 20.988281 3400.730469 731.179688 3522.210938 1417.980469 C 3579.871094 1743.949219 3634.328125 2051.839844 3699.558594 2287.089844 C 3772.140625 2548.851562 3848.640625 2678.171875 3933.421875 2682.460938 C 3934.878906 2682.53125 3936.351562 2682.570312 3937.820312 2682.570312 C 4102.128906 2682.570312 4313.089844 2219.941406 4582.511719 1268.941406 L 4586.121094 1269.960938 C 4442.160156 1778.109375 4317.789062 2139.121094 4205.910156 2373.609375 C 4105.570312 2583.917969 4017.839844 2686.320312 3937.941406 2686.320312 "/>
<path fill-rule="nonzero" fill="rgb(60.432434%, 78.50647%, 85.362244%)" fill-opacity="1" d="M 3979.320312 2700.941406 C 3977.789062 2700.941406 3976.269531 2700.910156 3974.75 2700.828125 C 3778.28125 2691.75 3663.910156 2090.46875 3542.820312 1453.890625 C 3414.570312 779.640625 3281.960938 82.449219 3042.71875 61.121094 C 2882.628906 46.828125 2691.191406 335.851562 2457.960938 944.730469 C 2135.511719 1786.519531 1897.089844 2196.609375 1729.921875 2196.660156 C 1725.628906 2196.660156 1721.410156 2196.390625 1717.21875 2195.859375 C 1532.320312 2172.128906 1472.28125 1631.289062 1419.308594 1154.121094 C 1379.96875 799.699219 1342.800781 464.929688 1259.511719 453.851562 C 1215.058594 447.871094 1159.109375 532.109375 1088.640625 711.191406 C 1013.53125 902.058594 944.007812 993.039062 876.402344 989.660156 C 745.449219 982.921875 644.695312 621.789062 538.023438 239.460938 C 422.425781 -174.871094 302.871094 -603.339844 137.449219 -603.339844 C 137.371094 -603.339844 137.3125 -603.339844 137.234375 -603.339844 C -11.160156 -603 -178.730469 -254.738281 -375.050781 461.359375 L -378.667969 460.359375 C -181.839844 -257.578125 -13.089844 -606.75 137.226562 -607.089844 C 137.296875 -607.089844 137.378906 -607.089844 137.449219 -607.089844 C 305.734375 -607.089844 425.652344 -177.25 541.636719 238.441406 C 647.933594 619.441406 748.335938 979.308594 876.59375 985.910156 C 942.574219 989.410156 1010.699219 898.988281 1085.148438 709.820312 C 1156.351562 528.898438 1213.550781 443.949219 1260 450.140625 C 1346.210938 461.601562 1381.808594 782.328125 1423.039062 1153.710938 C 1475.859375 1629.5 1535.71875 2168.789062 1717.691406 2192.140625 C 1795.070312 2202.101562 1891.179688 2114.761719 2003.460938 1932.679688 C 2129.691406 1727.941406 2281.429688 1395.101562 2454.460938 943.390625 C 2688.371094 332.75 2880.789062 43.039062 3043.058594 57.378906 C 3285.109375 78.96875 3418 777.578125 3546.511719 1453.179688 C 3607.519531 1773.980469 3665.160156 2076.96875 3733.328125 2308.421875 C 3809.191406 2565.941406 3888.210938 2693.078125 3974.929688 2697.089844 C 3976.339844 2697.160156 3977.769531 2697.179688 3979.191406 2697.179688 C 4146.589844 2697.179688 4358.351562 2244.539062 4626.339844 1313.988281 L 4629.949219 1315.019531 C 4486.828125 1811.96875 4362.648438 2165.089844 4250.308594 2394.570312 C 4149.441406 2600.609375 4060.730469 2700.941406 3979.320312 2700.941406 "/>
<path fill-rule="nonzero" fill="rgb(39.648438%, 80.59082%, 96.21582%)" fill-opacity="1" d="M 4021.601562 2715.550781 C 4020.140625 2715.550781 4018.679688 2715.511719 4017.230469 2715.460938 C 3816.410156 2707.050781 3695.660156 2115.230469 3567.828125 1488.648438 C 3432.480469 825.289062 3292.539062 139.339844 3048.019531 118.21875 C 2884.5 104.070312 2691.910156 386.558594 2458.601562 981.671875 C 2135.960938 1804.671875 1895.890625 2205.621094 1725.570312 2205.671875 C 1721.070312 2205.671875 1716.640625 2205.390625 1712.238281 2204.828125 C 1523.429688 2180.898438 1458.601562 1649.328125 1401.410156 1180.351562 C 1358.941406 832.078125 1318.828125 503.121094 1233.738281 491.921875 C 1188.308594 485.980469 1131.929688 568.191406 1061.339844 743.359375 C 987.601562 926.328125 918.8125 1015.410156 851.1875 1015.410156 C 849.960938 1015.410156 848.742188 1015.378906 847.515625 1015.328125 C 713.742188 1008.941406 608.488281 653.269531 497.050781 276.710938 C 376.308594 -131.28125 251.449219 -553.171875 82.445312 -553.171875 C 82.167969 -553.171875 81.90625 -553.171875 81.625 -553.171875 C -69.320312 -551.949219 -237.40625 -211.25 -432.230469 488.410156 L -435.84375 487.410156 C -240.507812 -214.078125 -71.253906 -555.691406 81.597656 -556.921875 C 81.871094 -556.921875 82.167969 -556.921875 82.441406 -556.921875 C 254.269531 -556.921875 379.503906 -133.699219 500.648438 275.648438 C 611.695312 650.890625 716.585938 1005.320312 847.691406 1011.578125 C 914.601562 1014.570312 983.453125 926.589844 1057.859375 741.960938 C 1129.179688 564.96875 1186.808594 481.960938 1234.230469 488.199219 C 1322.199219 499.78125 1360.628906 814.949219 1405.128906 1179.898438 C 1462.160156 1647.519531 1526.800781 2177.539062 1712.710938 2201.109375 C 1791.621094 2211.140625 1889.039062 2125.941406 2002.238281 1947.910156 C 2129.5 1747.769531 2281.859375 1422.21875 2455.109375 980.300781 C 2689.121094 383.410156 2883.320312 100.289062 3048.339844 114.480469 C 3295.648438 135.851562 3435.878906 823.191406 3571.5 1487.898438 C 3635.921875 1803.648438 3696.769531 2101.890625 3767.921875 2329.621094 C 3847.101562 2583.011719 3928.699219 2708 4017.378906 2711.710938 C 4018.738281 2711.761719 4020.121094 2711.789062 4021.480469 2711.789062 C 4192.011719 2711.789062 4404.621094 2268.941406 4671.289062 1358.460938 L 4674.890625 1359.511719 C 4532.570312 1845.429688 4408.539062 2190.800781 4295.71875 2415.359375 C 4194.289062 2617.25 4104.558594 2715.550781 4021.601562 2715.550781 "/>
<path fill-rule="nonzero" fill="rgb(51.271057%, 58.48999%, 82.933044%)" fill-opacity="1" d="M 4064.859375 2730.171875 C 4063.480469 2730.171875 4062.101562 2730.148438 4060.71875 2730.101562 C 3855.421875 2722.429688 3728.21875 2139.789062 3593.550781 1522.949219 C 3451.03125 870.179688 3303.671875 195.199219 3053.730469 174.308594 C 2887.378906 160.441406 2692.960938 436.351562 2459.488281 1017.949219 C 2136.539062 1822.46875 1894.75 2214.441406 1721.21875 2214.480469 C 1716.5 2214.480469 1711.859375 2214.191406 1707.238281 2213.609375 C 1514.410156 2189.449219 1444.769531 1666.941406 1383.328125 1205.941406 C 1337.71875 863.699219 1294.628906 540.449219 1207.71875 529.128906 C 1161.328125 523.070312 1104.46875 603.449219 1033.738281 774.789062 C 958.6875 956.558594 888.394531 1043.539062 818.300781 1040.351562 C 681.644531 1034.351562 571.820312 683.980469 455.550781 313.050781 C 329.59375 -88.789062 199.347656 -504.289062 26.683594 -504.289062 C 26.175781 -504.289062 25.679688 -504.28125 25.171875 -504.28125 C -128.335938 -502.128906 -296.96875 -168.839844 -490.355469 514.609375 L -493.964844 513.589844 C -300.0625 -171.679688 -130.269531 -505.851562 25.121094 -508.03125 C 25.636719 -508.03125 26.15625 -508.039062 26.671875 -508.039062 C 202.113281 -508.039062 332.765625 -91.21875 459.128906 311.921875 C 574.996094 681.570312 684.4375 1030.71875 818.46875 1036.609375 C 886.578125 1039.71875 955.894531 953.488281 1030.269531 773.359375 C 1101.738281 600.230469 1159.980469 519.140625 1208.199219 525.410156 C 1297.96875 537.101562 1339.25 846.820312 1387.050781 1205.449219 C 1448.308594 1665.101562 1517.75 2186.089844 1707.699219 2209.890625 C 1788.210938 2219.96875 1886.949219 2136.859375 2001.109375 1962.820312 C 2129.429688 1767.210938 2282.480469 1448.828125 2456.011719 1016.550781 C 2690.179688 433.230469 2885.679688 156.421875 3054.039062 170.570312 C 3306.738281 191.691406 3454.410156 868.050781 3597.210938 1522.140625 C 3731.570312 2137.539062 3858.46875 2718.789062 4060.859375 2726.351562 C 4062.148438 2726.398438 4063.449219 2726.421875 4064.738281 2726.421875 C 4238.449219 2726.421875 4452 2293.179688 4717.429688 1402.429688 L 4721.03125 1403.5 C 4579.46875 1878.550781 4455.558594 2216.289062 4342.230469 2436.019531 C 4240.179688 2633.859375 4149.390625 2730.171875 4064.859375 2730.171875 "/>
<path fill-rule="nonzero" fill="rgb(63.945007%, 64.779663%, 85.591125%)" fill-opacity="1" d="M 4109.089844 2744.820312 C 4107.808594 2744.820312 4106.53125 2744.800781 4105.238281 2744.75 C 3895.359375 2737.878906 3761.601562 2164.171875 3619.988281 1556.769531 C 3470.210938 914.320312 3315.339844 250 3059.828125 229.371094 C 2890.410156 215.578125 2694.328125 485.269531 2460.628906 1053.550781 C 2137.25 1839.929688 1893.679688 2223.070312 1716.898438 2223.101562 C 1711.949219 2223.101562 1707.078125 2222.800781 1702.230469 2222.199219 C 1505.300781 2197.839844 1430.800781 1684.179688 1365.070312 1230.980469 C 1316.289062 894.609375 1270.210938 576.910156 1181.410156 565.460938 C 1134.101562 559.390625 1076.679688 637.859375 1005.78125 805.421875 C 931.964844 979.859375 862.042969 1064.769531 792.183594 1064.78125 C 791.027344 1064.78125 789.882812 1064.761719 788.722656 1064.71875 C 649.117188 1059.121094 534.664062 713.910156 413.488281 348.441406 C 282.25 -47.390625 146.542969 -456.671875 -29.859375 -456.671875 C -30.628906 -456.671875 -31.378906 -456.660156 -32.152344 -456.640625 C -188.210938 -453.519531 -357.402344 -127.53125 -549.394531 539.941406 L -552.996094 538.910156 C -360.492188 -130.351562 -190.148438 -457.230469 -32.222656 -460.390625 C -31.441406 -460.410156 -30.652344 -460.421875 -29.871094 -460.421875 C 149.265625 -460.421875 285.382812 -49.859375 417.046875 347.261719 C 537.804688 711.460938 651.863281 1055.46875 788.875 1060.96875 C 858.09375 1063.839844 927.96875 979.679688 1002.320312 803.960938 C 1073.980469 634.640625 1132.738281 555.421875 1181.890625 561.75 C 1273.511719 573.550781 1317.660156 877.960938 1368.78125 1230.441406 C 1434.320312 1682.308594 1508.601562 2194.46875 1702.691406 2218.480469 C 1784.828125 2228.648438 1884.929688 2147.539062 2000.078125 1977.441406 C 2129.511719 1786.261719 2283.289062 1474.941406 2457.160156 1052.121094 C 2691.558594 482.148438 2888.941406 211.839844 3060.128906 225.628906 C 3318.359375 246.480469 3473.558594 912.160156 3623.648438 1555.921875 C 3764.921875 2161.878906 3898.359375 2734.230469 4105.371094 2741.011719 C 4106.558594 2741.050781 4107.78125 2741.070312 4108.96875 2741.070312 C 4285.910156 2741.070312 4500.449219 2317.300781 4764.75 1445.890625 L 4768.339844 1446.980469 C 4627.511719 1911.320312 4503.691406 2241.550781 4389.808594 2456.539062 C 4287.109375 2650.441406 4195.230469 2744.820312 4109.089844 2744.820312 "/>
<path fill-rule="nonzero" fill="rgb(46.260071%, 69.815063%, 89.511108%)" fill-opacity="1" d="M 4154.308594 2759.460938 C 4153.140625 2759.460938 4151.980469 2759.449219 4150.808594 2759.421875 C 3936.210938 2753.410156 3795.808594 2188.359375 3647.171875 1590.128906 C 3490.03125 957.71875 3327.550781 303.78125 3066.351562 283.460938 C 2893.539062 270.128906 2696.03125 533.359375 2462.070312 1088.480469 C 2138.171875 1857.011719 1892.699219 2231.488281 1712.609375 2231.53125 C 1707.421875 2231.53125 1702.320312 2231.230469 1697.230469 2230.609375 C 1496.070312 2206.050781 1416.671875 1700.988281 1346.609375 1255.390625 C 1292.378906 910.429688 1245.539062 612.5 1154.828125 600.941406 C 1106.550781 594.808594 1048.589844 671.460938 977.496094 835.300781 C 902.457031 1008.238281 830.949219 1090.890625 758.804688 1088.421875 C 616.175781 1083.25 497.007812 743.039062 370.84375 382.859375 C 234.242188 -7.109375 92.992188 -410.328125 -87.234375 -410.328125 C -88.296875 -410.328125 -89.335938 -410.308594 -90.402344 -410.28125 C -249.007812 -406.128906 -418.773438 -87.308594 -609.40625 564.390625 L -613.003906 563.339844 C -421.855469 -90.128906 -250.945312 -409.828125 -90.5 -414.03125 C -89.417969 -414.058594 -88.324219 -414.078125 -87.25 -414.078125 C 95.671875 -414.078125 237.339844 -9.609375 374.382812 381.621094 C 500.113281 740.558594 618.867188 1079.589844 758.941406 1084.671875 C 829.433594 1087.121094 899.707031 1005.160156 974.058594 833.800781 C 1045.910156 668.230469 1105.210938 590.929688 1155.300781 597.21875 C 1248.808594 609.140625 1295.851562 908.351562 1350.320312 1254.808594 C 1420.171875 1699.101562 1499.328125 2202.671875 1697.691406 2226.878906 C 1781.519531 2237.21875 1882.96875 2158.011719 1999.179688 1991.75 C 2129.761719 1804.941406 2284.328125 1500.539062 2458.609375 1087.03125 C 2687.539062 543.839844 2882.441406 279.21875 3053.800781 279.21875 C 3058.101562 279.21875 3062.371094 279.378906 3066.640625 279.71875 C 3330.539062 300.25 3493.351562 955.53125 3650.808594 1589.21875 C 3799.101562 2186.03125 3939.160156 2749.738281 4150.921875 2755.671875 C 4152 2755.699219 4153.109375 2755.710938 4154.199219 2755.710938 C 4334.390625 2755.710938 4550.011719 2341.230469 4813.261719 1488.851562 L 4816.839844 1489.960938 C 4676.691406 1943.738281 4552.941406 2266.570312 4438.511719 2476.910156 C 4335.101562 2666.96875 4242.078125 2759.460938 4154.308594 2759.460938 "/>
<path fill-rule="nonzero" fill="rgb(75.892639%, 82.106018%, 93.496704%)" fill-opacity="1" d="M 4200.539062 2774.171875 C 4199.511719 2774.171875 4198.5 2774.160156 4197.46875 2774.140625 C 3978.019531 2769.039062 3830.878906 2212.410156 3675.101562 1623.089844 C 3510.511719 1000.449219 3340.320312 356.601562 3073.25 336.601562 C 2897.519531 323.390625 2698.039062 580.621094 2463.71875 1122.828125 C 2139.179688 1873.828125 1891.789062 2239.789062 1708.339844 2239.800781 C 1702.910156 2239.800781 1697.539062 2239.480469 1692.230469 2238.839844 C 1486.738281 2214.101562 1402.390625 1717.460938 1327.96875 1279.28125 C 1270.378906 940.160156 1220.640625 647.289062 1127.960938 635.621094 C 1078.761719 629.441406 1020.179688 704.28125 948.863281 864.46875 C 874.882812 1030.660156 803.785156 1111.550781 731.648438 1111.550781 C 730.605469 1111.550781 729.566406 1111.539062 728.519531 1111.5 C 582.789062 1106.78125 458.832031 771.441406 327.597656 416.421875 C 184.476562 29.238281 36.25 -371.28125 -149.613281 -365.089844 C -310.75 -359.871094 -481.109375 -48.089844 -670.421875 588.058594 L -674.015625 586.980469 C -484.183594 -50.898438 -312.691406 -363.558594 -149.738281 -368.839844 C -148.316406 -368.878906 -146.886719 -368.910156 -145.472656 -368.910156 C 41.3125 -368.910156 188.617188 29.609375 331.117188 415.109375 C 461.902344 768.929688 585.433594 1103.121094 728.640625 1107.75 C 729.644531 1107.789062 730.652344 1107.800781 731.65625 1107.800781 C 802.152344 1107.800781 872.117188 1027.648438 945.433594 862.949219 C 1017.511719 701.039062 1077.371094 625.390625 1128.429688 631.898438 C 1223.871094 643.921875 1273.820312 938.058594 1331.671875 1278.648438 C 1405.871094 1715.53125 1489.96875 2210.710938 1692.671875 2235.121094 C 1778.191406 2245.378906 1881.070312 2168.261719 1998.359375 2005.789062 C 2130.128906 1823.269531 2285.550781 1525.691406 2460.28125 1121.339844 C 2695.308594 577.480469 2895.699219 319.480469 3073.53125 332.859375 C 3343.261719 353.058594 3513.800781 998.21875 3678.730469 1622.128906 C 3834.128906 2210.050781 3980.921875 2765.359375 4197.558594 2770.390625 C 4198.519531 2770.410156 4199.480469 2770.421875 4200.441406 2770.421875 C 4383.941406 2770.421875 4600.699219 2365.03125 4863 1531.359375 L 4866.570312 1532.488281 C 4727.078125 1975.871094 4603.351562 2291.421875 4488.328125 2497.179688 C 4384.179688 2683.5 4289.988281 2774.171875 4200.539062 2774.171875 "/>
<path fill-rule="nonzero" fill="rgb(28.152466%, 35.400391%, 69.760132%)" fill-opacity="1" d="M 4247.800781 2788.878906 C 4246.941406 2788.878906 4246.089844 2788.878906 4245.230469 2788.859375 C 4020.789062 2784.761719 3866.800781 2236.28125 3703.769531 1655.601562 C 3531.621094 1042.449219 3353.609375 408.441406 3080.550781 388.800781 C 2901.519531 375.871094 2700.359375 627.058594 2465.648438 1156.53125 C 2140.378906 1890.289062 1890.949219 2247.859375 1704.089844 2247.878906 C 1698.398438 2247.878906 1692.789062 2247.550781 1687.210938 2246.890625 C 1477.289062 2221.960938 1387.949219 1733.519531 1309.121094 1302.570312 C 1248.140625 969.171875 1195.46875 681.238281 1100.789062 669.449219 C 1050.550781 663.238281 991.425781 736.289062 919.875 892.878906 C 845.78125 1055.050781 774.074219 1133.96875 700.789062 1133.980469 C 699.816406 1133.980469 698.847656 1133.960938 697.875 1133.941406 C 548.96875 1129.691406 420.140625 799.058594 283.753906 449.011719 C 134.800781 66.730469 -18.996094 -328.53125 -209.800781 -321.179688 C -373.449219 -314.839844 -544.410156 -9.980469 -732.445312 610.828125 L -736.035156 609.738281 C -547.480469 -12.78125 -375.390625 -318.519531 -209.945312 -324.921875 C -16.742188 -332.488281 137.816406 64.148438 287.246094 447.648438 C 423.171875 796.5 551.5625 1126.011719 697.980469 1130.191406 C 770.53125 1132.320312 842.082031 1054.121094 916.46875 891.320312 C 988.785156 733.050781 1049.210938 659.269531 1101.25 665.730469 C 1198.671875 677.859375 1251.558594 967.039062 1312.808594 1301.898438 C 1391.398438 1731.570312 1480.480469 2218.570312 1687.648438 2243.160156 C 1774.941406 2253.570312 1879.230469 2178.289062 1997.648438 2019.539062 C 2130.660156 1841.230469 2286.96875 1550.359375 2462.21875 1155.011719 C 2697.660156 623.910156 2900.199219 372.089844 3080.808594 385.058594 C 3356.511719 404.878906 3534.878906 1040.191406 3707.378906 1654.589844 C 3870.019531 2233.890625 4023.648438 2781.058594 4245.300781 2785.109375 C 4246.101562 2785.128906 4246.910156 2785.128906 4247.710938 2785.128906 C 4434.570312 2785.128906 4652.53125 2388.679688 4913.96875 1573.378906 L 4917.539062 1574.53125 C 4778.648438 2007.660156 4654.929688 2316.050781 4539.308594 2517.320312 C 4434.359375 2700 4338.960938 2788.878906 4247.800781 2788.878906 "/>
<path fill-rule="nonzero" fill="rgb(67.578125%, 89.385986%, 94.198608%)" fill-opacity="1" d="M 4296.140625 2803.648438 C 4295.480469 2803.648438 4294.828125 2803.648438 4294.171875 2803.640625 C 4064.589844 2800.589844 3903.640625 2260.019531 3733.230469 1687.710938 C 3553.410156 1083.789062 3367.46875 459.320312 3088.238281 440.078125 C 2906.070312 427.570312 2703.039062 672.699219 2467.851562 1189.628906 C 2141.75 1906.421875 1890.210938 2255.738281 1699.890625 2255.761719 C 1693.929688 2255.761719 1688.050781 2255.421875 1682.21875 2254.730469 C 1467.738281 2229.640625 1373.351562 1749.191406 1290.058594 1325.289062 C 1225.660156 997.488281 1170.03125 714.378906 1073.308594 702.488281 C 1022.101562 696.128906 962.332031 767.539062 890.523438 920.589844 C 816.296875 1078.800781 743.96875 1155.789062 669.527344 1155.800781 C 668.636719 1155.800781 667.75 1155.789062 666.859375 1155.769531 C 514.703125 1152.011719 380.921875 825.949219 239.277344 480.738281 C 84.359375 103.171875 -76 -287.359375 -271.019531 -278.441406 C -437.164062 -270.949219 -608.730469 27.109375 -795.523438 632.761719 L -799.109375 631.660156 C -611.789062 24.308594 -439.105469 -274.609375 -271.1875 -282.191406 C -268.976562 -282.289062 -266.75 -282.339844 -264.550781 -282.339844 C -69.753906 -282.339844 89.074219 104.78125 242.746094 479.320312 C 383.910156 823.359375 517.242188 1148.320312 666.953125 1152.019531 C 740.816406 1153.789062 812.714844 1077.621094 887.128906 919 C 959.714844 764.289062 1020.761719 692.210938 1073.761719 698.761719 C 1173.191406 710.988281 1229.058594 995.328125 1293.738281 1324.570312 C 1376.78125 1747.210938 1470.890625 2226.230469 1682.648438 2251.011719 C 1771.660156 2261.460938 1877.46875 2188.070312 1997.058594 2032.988281 C 2131.359375 1858.820312 2288.609375 1574.550781 2464.441406 1188.070312 C 2694.558594 682.28125 2894.460938 435.871094 3074.941406 435.871094 C 3079.46875 435.871094 3083.980469 436.03125 3088.5 436.339844 C 3370.320312 455.761719 3556.640625 1081.5 3736.820312 1686.640625 C 3906.828125 2257.589844 4067.398438 2796.878906 4294.21875 2799.890625 C 4294.828125 2799.898438 4295.460938 2799.898438 4296.078125 2799.898438 C 4486.328125 2799.898438 4705.558594 2412.25 4966.230469 1614.988281 L 4969.789062 1616.148438 C 4831.488281 2039.171875 4707.75 2340.5 4591.488281 2537.359375 C 4485.710938 2716.511719 4389.058594 2803.648438 4296.140625 2803.648438 "/>
<path fill-rule="nonzero" fill="rgb(70.336914%, 90.278625%, 94.487%)" fill-opacity="1" d="M 4345.550781 2818.46875 C 4345.121094 2818.46875 4344.699219 2818.46875 4344.261719 2818.46875 C 4109.421875 2816.539062 3941.378906 2283.628906 3763.46875 1719.429688 C 3575.859375 1124.480469 3381.871094 509.269531 3096.308594 490.460938 C 2910.769531 478.160156 2706.011719 717.550781 2470.308594 1222.109375 C 2132.738281 1944.75 1873.359375 2285.070312 1677.210938 2262.421875 C 1458.070312 2237.160156 1358.578125 1764.5 1270.789062 1347.488281 C 1202.941406 1025.121094 1144.328125 746.71875 1045.5 734.71875 C 993.3125 728.359375 932.882812 798.019531 860.789062 947.601562 C 786.40625 1101.921875 713.441406 1177 637.835938 1177.011719 C 637.035156 1177.011719 636.25 1177 635.453125 1176.988281 C 479.957031 1173.75 341.121094 852.101562 194.132812 511.570312 C 33.109375 138.539062 -133.457031 -247.421875 -333.316406 -236.878906 C -501.921875 -228.179688 -674.097656 63.191406 -859.679688 653.878906 L -863.257812 652.761719 C -677.148438 60.390625 -503.867188 -231.828125 -333.507812 -240.621094 C -130.878906 -251.078125 36.046875 135.878906 197.574219 510.089844 C 344.070312 849.480469 482.445312 1170.039062 635.53125 1173.238281 C 636.296875 1173.25 637.066406 1173.261719 637.835938 1173.261719 C 711.863281 1173.261719 783.710938 1098.871094 857.410156 945.96875 C 930.289062 794.761719 991.984375 724.410156 1045.960938 731 C 1147.449219 743.320312 1206.308594 1022.941406 1274.460938 1346.710938 C 1361.988281 1762.488281 1461.191406 2233.75 1677.640625 2258.699219 C 1768.480469 2269.179688 1875.769531 2197.660156 1996.578125 2046.160156 C 2132.199219 1876.078125 2290.449219 1598.289062 2466.910156 1220.53125 C 2703.339844 714.398438 2909.410156 474.371094 3096.550781 486.710938 C 3384.671875 505.691406 3579.058594 1122.148438 3767.050781 1718.300781 C 3944.53125 2281.160156 4112.179688 2812.808594 4344.289062 2814.71875 C 4344.691406 2814.71875 4345.109375 2814.71875 4345.511719 2814.71875 C 4539.199219 2814.71875 4759.75 2435.71875 5019.730469 1656.160156 L 5023.28125 1657.339844 C 4885.539062 2070.378906 4761.761719 2364.761719 4644.871094 2557.300781 C 4538.191406 2733.011719 4440.261719 2818.46875 4345.550781 2818.46875 "/>
<path fill-rule="nonzero" fill="rgb(54.589844%, 85.334778%, 95.898438%)" fill-opacity="1" d="M 4396.070312 2833.351562 C 4395.898438 2833.351562 4395.738281 2833.351562 4395.570312 2833.339844 C 4155.300781 2832.609375 3980.050781 2307.121094 3794.5 1750.769531 C 3598.988281 1164.511719 3396.808594 558.300781 3104.75 539.941406 C 2916.070312 528.058594 2709.300781 761.648438 2473.03125 1254 C 2144.941406 1937.730469 1888.949219 2270.988281 1691.558594 2271.03125 C 1685.039062 2271.03125 1678.609375 2270.671875 1672.21875 2269.941406 C 1448.289062 2244.519531 1343.640625 1779.460938 1251.300781 1369.160156 C 1179.949219 1052.109375 1118.328125 778.289062 1017.359375 766.191406 C 964.15625 759.800781 903.058594 827.761719 830.652344 973.921875 C 756.105469 1124.398438 682.496094 1197.609375 605.726562 1197.621094 C 605.035156 1197.621094 604.355469 1197.609375 603.664062 1197.601562 C 444.761719 1194.898438 300.785156 877.539062 148.351562 541.558594 C -18.914062 172.871094 -191.964844 -208.371094 -396.679688 -196.46875 C -567.71875 -186.53125 -740.503906 98.269531 -924.90625 674.210938 L -928.476562 673.070312 C -743.546875 95.480469 -569.664062 -190.179688 -396.898438 -200.21875 C -189.507812 -212.089844 -16.019531 170.171875 151.769531 540.011719 C 303.695312 874.878906 447.199219 1191.191406 603.726562 1193.851562 C 604.390625 1193.859375 605.0625 1193.871094 605.722656 1193.871094 C 680.9375 1193.871094 753.429688 1121.351562 827.292969 972.25 C 900.484375 824.488281 962.796875 755.898438 1017.800781 762.460938 C 1121.410156 774.878906 1183.300781 1049.890625 1254.960938 1368.328125 C 1347.019531 1777.421875 1451.371094 2241.101562 1672.640625 2266.210938 C 1765.300781 2276.730469 1874.148438 2207.03125 1996.199219 2059.070312 C 2133.199219 1892.980469 2292.488281 1621.570312 2469.648438 1252.378906 C 2706.660156 758.488281 2914.660156 524.261719 3104.980469 536.199219 C 3399.570312 554.710938 3602.148438 1162.148438 3798.058594 1749.578125 C 3983.160156 2304.609375 4158 2828.859375 4395.578125 2829.589844 C 4395.730469 2829.589844 4395.898438 2829.601562 4396.058594 2829.601562 C 4593.230469 2829.601562 4815.171875 2459.089844 5074.550781 1696.921875 L 5078.101562 1698.140625 C 4940.878906 2101.339844 4817.039062 2388.871094 4699.488281 2577.160156 C 4591.871094 2749.53125 4492.621094 2833.351562 4396.070312 2833.351562 "/>
<path fill-rule="nonzero" fill="rgb(69.003296%, 75.541687%, 90.750122%)" fill-opacity="1" d="M 4447.730469 2848.269531 C 4202.058594 2848.269531 4019.558594 2330.210938 3826.328125 1781.71875 C 3622.769531 1203.921875 3412.269531 606.441406 3113.539062 588.578125 C 2921.199219 577.089844 2712.871094 805.011719 2475.980469 1285.359375 C 2146.730469 1952.980469 1888.441406 2278.410156 1687.441406 2278.421875 C 1680.628906 2278.421875 1673.898438 2278.039062 1667.21875 2277.300781 C 1438.390625 2251.730469 1328.519531 1794.078125 1231.578125 1390.308594 C 1156.710938 1078.429688 1092.039062 809.089844 988.867188 796.878906 C 934.617188 790.441406 872.847656 856.761719 800.109375 999.550781 C 724.820312 1147.339844 649.976562 1218.761719 571.472656 1217.628906 C 409.082031 1215.480469 259.867188 902.289062 101.890625 570.710938 C -71.78125 206.191406 -251.417969 -170.601562 -461.195312 -157.179688 C -634.632812 -145.96875 -808.023438 132.359375 -991.289062 693.71875 L -994.851562 692.550781 C -811.058594 129.570312 -636.578125 -149.601562 -461.4375 -160.921875 C -249.039062 -174.839844 -68.929688 203.449219 105.277344 569.089844 C 262.738281 899.589844 411.464844 1211.761719 571.519531 1213.878906 C 648.492188 1214.898438 722.195312 1144.238281 796.769531 997.851562 C 870.304688 853.488281 933.265625 786.480469 989.308594 793.160156 C 1095.078125 805.671875 1160.019531 1076.191406 1235.230469 1389.429688 C 1331.878906 1792.011719 1441.421875 2248.289062 1667.628906 2273.570312 C 1762.128906 2284.140625 1872.578125 2216.210938 1995.921875 2071.71875 C 2134.320312 1909.570312 2294.710938 1644.441406 2472.621094 1283.699219 C 2710.238281 801.859375 2919.921875 573.300781 3113.761719 584.828125 C 3414.980469 602.839844 3625.898438 1201.519531 3829.859375 1780.46875 C 4022.628906 2327.640625 4204.738281 2844.519531 4447.730469 2844.519531 C 4447.871094 2844.519531 4447.96875 2844.519531 4448.101562 2844.519531 C 4648.699219 2844.089844 4871.980469 2481.917969 5130.699219 1737.308594 L 5134.238281 1738.539062 C 4997.519531 2132.03125 4873.589844 2412.808594 4755.378906 2596.929688 C 4646.910156 2765.839844 4546.410156 2848.058594 4448.109375 2848.269531 C 4447.988281 2848.269531 4447.851562 2848.269531 4447.730469 2848.269531 "/>
<path fill-rule="nonzero" fill="rgb(66.467285%, 68.515015%, 84.381104%)" fill-opacity="1" d="M 4500.550781 2863.28125 C 4249.601562 2863.28125 4059.859375 2352.789062 3858.960938 1812.328125 C 3647.230469 1242.71875 3428.289062 653.730469 3122.710938 636.390625 C 3118.070312 636.121094 3113.421875 635.988281 3108.761719 635.988281 C 2917.269531 635.988281 2711.160156 858.769531 2479.230469 1316.148438 C 2148.75 1967.898438 1888.050781 2285.621094 1683.390625 2285.640625 C 1676.269531 2285.640625 1669.238281 2285.261719 1662.25 2284.480469 C 1428.378906 2258.78125 1313.21875 1808.339844 1211.609375 1410.910156 C 1133.160156 1104.089844 1065.421875 839.101562 959.992188 826.800781 C 904.640625 820.320312 842.21875 885 769.128906 1024.488281 C 694.1875 1167.5 619.269531 1237.050781 540.148438 1237.050781 C 539.71875 1237.050781 539.292969 1237.050781 538.859375 1237.050781 C 372.894531 1235.460938 218.339844 926.289062 54.707031 598.96875 C -125.523438 238.441406 -311.824219 -134.378906 -526.902344 -119.058594 C -702.6875 -106.539062 -876.683594 165.429688 -1058.820312 712.421875 L -1062.378906 711.230469 C -879.707031 162.648438 -704.636719 -110.171875 -527.167969 -122.800781 C -309.703125 -138.238281 -122.726562 235.660156 58.0625 597.289062 C 221.167969 923.558594 375.226562 1231.730469 538.898438 1233.300781 C 539.308594 1233.300781 539.734375 1233.300781 540.148438 1233.300781 C 617.746094 1233.300781 691.570312 1164.421875 765.808594 1022.75 C 839.707031 881.730469 903.339844 816.378906 960.429688 823.070312 C 1068.410156 835.679688 1136.460938 1101.820312 1215.238281 1409.988281 C 1316.550781 1806.230469 1431.371094 2255.328125 1662.660156 2280.761719 C 1759.011719 2291.351562 1871.109375 2225.191406 1995.789062 2084.109375 C 2135.648438 1925.839844 2297.179688 1666.890625 2475.878906 1314.449219 C 2714.191406 844.480469 2925.691406 621.308594 3122.921875 632.640625 C 3430.949219 650.121094 3650.328125 1240.289062 3862.480469 1811.019531 C 4062.898438 2350.191406 4252.238281 2859.53125 4500.539062 2859.53125 C 4501 2859.53125 4501.441406 2859.53125 4501.890625 2859.53125 C 4705.808594 2858.011719 4930.300781 2504.03125 5188.210938 1777.328125 L 5191.75 1778.578125 C 5055.488281 2162.5 4931.460938 2436.640625 4812.550781 2616.640625 C 4703.421875 2781.859375 4601.808594 2862.539062 4501.921875 2863.28125 C 4501.46875 2863.28125 4500.988281 2863.28125 4500.550781 2863.28125 "/>
<path fill-rule="nonzero" fill="rgb(45.507812%, 82.225037%, 91.381836%)" fill-opacity="1" d="M 4554.558594 2878.339844 C 4298.261719 2878.339844 4101.121094 2375.171875 3892.449219 1842.558594 C 3672.398438 1280.910156 3444.859375 700.140625 3132.25 683.339844 C 2933.628906 672.648438 2721.03125 889.53125 2482.738281 1346.390625 C 2150.929688 1982.539062 1887.75 2292.671875 1679.378906 2292.699219 C 1671.941406 2292.699219 1664.589844 2292.300781 1657.289062 2291.519531 C 1418.238281 2265.671875 1297.730469 1822.25 1191.398438 1431.019531 C 1109.351562 1129.128906 1038.488281 868.398438 930.769531 856 C 874.402344 849.5 811.226562 912.570312 737.753906 1048.789062 C 662.589844 1188.148438 586.996094 1255.910156 506.703125 1255.921875 C 506.417969 1255.921875 506.144531 1255.921875 505.855469 1255.910156 C 336.226562 1254.910156 176.21875 949.621094 6.8125 626.410156 C -180.148438 269.699219 -373.539062 -99.191406 -593.8125 -82.019531 C -771.894531 -68.171875 -946.46875 197.550781 -1127.511719 730.339844 L -1131.058594 729.128906 C -949.484375 194.769531 -773.847656 -71.78125 -594.101562 -85.761719 C -371.277344 -103.039062 -177.394531 266.878906 10.132812 624.671875 C 179 946.851562 338.503906 1251.171875 505.878906 1252.171875 C 584.894531 1252.460938 659.742188 1185.53125 734.453125 1047.011719 C 808.734375 909.289062 873.0625 845.640625 931.199219 852.28125 C 1041.441406 864.96875 1112.609375 1126.828125 1195.019531 1430.039062 C 1301.03125 1820.101562 1421.191406 2262.210938 1657.691406 2287.789062 C 1755.941406 2298.390625 1869.71875 2233.96875 1995.769531 2096.238281 C 2137.128906 1941.78125 2299.859375 1688.910156 2479.421875 1344.648438 C 2718.46875 886.371094 2932.261719 668.890625 3132.449219 679.601562 C 3447.46875 696.53125 3675.460938 1278.441406 3895.941406 1841.191406 C 4104.128906 2372.570312 4300.828125 2874.589844 4554.550781 2874.589844 C 4555.378906 2874.589844 4556.179688 2874.589844 4557.011719 2874.578125 C 4764.21875 2871.941406 4989.949219 2525.980469 5247.101562 1816.949219 L 5250.621094 1818.230469 C 5114.808594 2192.710938 4990.648438 2460.289062 4871.058594 2636.261719 C 4761.25 2797.851562 4658.53125 2877.03125 4557.058594 2878.328125 C 4556.21875 2878.339844 4555.390625 2878.339844 4554.558594 2878.339844 "/>
<path fill-rule="nonzero" fill="rgb(67.475891%, 73.846436%, 90.002441%)" fill-opacity="1" d="M 4609.769531 2893.488281 C 4347.949219 2893.488281 4143.359375 2397.511719 3926.78125 1872.480469 C 3698.261719 1318.539062 3461.96875 745.730469 3142.121094 729.5 C 2940.070312 719.191406 2725.578125 930.738281 2486.511719 1376.078125 C 2153.261719 1996.910156 1887.539062 2299.589844 1675.410156 2299.609375 C 1667.640625 2299.609375 1659.960938 2299.210938 1652.328125 2298.398438 C 1407.980469 2272.421875 1282.03125 1835.828125 1170.910156 1450.640625 C 1085.210938 1153.539062 1011.191406 896.960938 901.113281 884.460938 C 843.625 877.921875 779.753906 939.421875 705.882812 1072.429688 C 630.488281 1208.191406 554.214844 1274.199219 472.746094 1274.210938 C 472.621094 1274.210938 472.511719 1274.210938 472.386719 1274.210938 C 299.015625 1273.789062 133.453125 972.269531 -41.828125 653.039062 C -235.695312 299.96875 -436.203125 -65.179688 -661.976562 -46.070312 C -842.304688 -30.871094 -1017.449219 228.699219 -1197.410156 747.460938 L -1200.949219 746.230469 C -1020.449219 225.921875 -844.257812 -34.46875 -662.292969 -49.808594 C -433.96875 -68.960938 -232.984375 297.121094 -38.542969 651.238281 C 136.195312 969.460938 301.238281 1270.039062 472.394531 1270.460938 C 552.425781 1270.441406 627.816406 1205.269531 702.609375 1070.601562 C 777.292969 936.121094 842.339844 873.949219 901.535156 880.738281 C 1014.101562 893.511719 1088.441406 1151.210938 1174.519531 1449.601562 C 1285.308594 1833.648438 1410.878906 2268.960938 1652.730469 2294.671875 C 1752.960938 2305.28125 1868.398438 2242.558594 1995.859375 2108.128906 C 2138.761719 1957.410156 2302.730469 1710.519531 2483.210938 1374.308594 C 2723.03125 927.558594 2938.671875 715.550781 3142.308594 725.75 C 3464.53125 742.101562 3701.28125 1316.03125 3930.238281 1871.050781 C 4146.320312 2394.828125 4350.5 2889.75 4609.769531 2889.75 C 4611.011719 2889.75 4612.21875 2889.730469 4613.460938 2889.710938 C 4823.960938 2885.898438 5050.929688 2547.859375 5307.339844 1856.269531 L 5310.859375 1857.570312 C 5175.46875 2222.71875 5051.191406 2483.839844 4930.898438 2655.851562 C 4820.398438 2813.871094 4716.589844 2891.589844 4613.519531 2893.460938 C 4612.28125 2893.480469 4611.011719 2893.488281 4609.769531 2893.488281 "/>
<path fill-rule="nonzero" fill="rgb(60.572815%, 76.664734%, 84.310913%)" fill-opacity="1" d="M 4666.238281 2908.730469 C 4398.789062 2908.730469 4186.578125 2419.667969 3961.96875 1902.058594 C 3724.828125 1355.578125 3479.621094 790.5 3152.359375 774.859375 C 2946.941406 765.019531 2730.429688 971.238281 2490.558594 1405.25 C 2155.769531 2011 1887.449219 2306.339844 1671.511719 2306.351562 C 1663.398438 2306.351562 1655.378906 2305.929688 1647.410156 2305.101562 C 1397.601562 2279 1266.148438 1849.050781 1150.179688 1469.710938 C 1060.78125 1177.289062 983.578125 924.75 871.09375 912.160156 C 812.496094 905.621094 747.894531 965.539062 673.609375 1095.378906 C 598.003906 1227.539062 521.097656 1291.828125 438.507812 1291.921875 C 438.449219 1291.921875 438.394531 1291.921875 438.34375 1291.921875 C 261.195312 1291.921875 90.007812 994.121094 -91.230469 678.839844 C -292.183594 329.261719 -499.996094 -32.199219 -731.4375 -11.199219 C -913.945312 5.378906 -1089.640625 258.890625 -1268.550781 763.808594 L -1272.078125 762.558594 C -1092.628906 256.109375 -915.898438 1.789062 -731.777344 -14.941406 C -497.957031 -36.140625 -289.523438 326.359375 -87.976562 676.96875 C 92.699219 991.28125 263.363281 1288.171875 438.339844 1288.171875 C 438.394531 1288.171875 438.445312 1288.171875 438.5 1288.171875 C 519.632812 1288.078125 595.472656 1224.421875 670.355469 1093.519531 C 745.460938 962.238281 811.234375 901.640625 871.507812 908.441406 C 986.441406 921.300781 1063.980469 1174.929688 1153.769531 1468.609375 C 1269.398438 1846.839844 1400.460938 2275.53125 1647.800781 2301.371094 C 1750.011719 2312.050781 1867.179688 2250.949219 1996.089844 2119.761719 C 2140.570312 1972.730469 2305.828125 1731.71875 2487.269531 1403.441406 C 2727.910156 968.058594 2945.421875 761.179688 3152.539062 771.121094 C 3482.128906 786.871094 3727.808594 1353.039062 3965.398438 1900.570312 C 4189.511719 2416.988281 4401.269531 2904.980469 4666.238281 2904.980469 C 4667.929688 2904.980469 4669.609375 2904.960938 4671.308594 2904.921875 C 4885.078125 2899.898438 5113.320312 2569.621094 5369.070312 1895.21875 L 5372.570312 1896.550781 C 5116.21875 2572.539062 4886.871094 2903.609375 4671.398438 2908.660156 C 4669.679688 2908.710938 4667.949219 2908.730469 4666.238281 2908.730469 "/>
<path fill-rule="nonzero" fill="rgb(70.890808%, 72.016907%, 88.847351%)" fill-opacity="1" d="M 4723.988281 2924.058594 C 4450.761719 2924.058594 4230.808594 2441.761719 3998.039062 1931.339844 C 3752.109375 1392.101562 3497.808594 834.5 3162.929688 819.46875 C 2954.078125 810.148438 2735.601562 1011.101562 2494.859375 1433.941406 C 2158.46875 2024.808594 1887.460938 2312.941406 1667.671875 2312.960938 C 1659.210938 2312.960938 1650.839844 2312.53125 1642.519531 2311.679688 C 1387.101562 2285.460938 1250.070312 1861.960938 1129.171875 1488.328125 C 1036.03125 1200.46875 955.589844 951.871094 840.640625 939.179688 C 780.929688 932.609375 715.570312 991 640.84375 1117.738281 C 565.140625 1246.128906 487.726562 1308.71875 404.171875 1309.078125 C 403.941406 1309.078125 403.683594 1309.078125 403.449219 1309.078125 C 222.566406 1309.109375 45.777344 1015.089844 -141.402344 703.828125 C -349.640625 357.558594 -564.925781 -0.570312 -802.234375 22.578125 C -986.859375 40.550781 -1163.078125 288.109375 -1340.960938 779.390625 L -1344.480469 778.109375 C -1166.058594 285.328125 -988.808594 36.980469 -802.597656 18.851562 C -563.019531 -4.398438 -347.03125 354.628906 -138.1875 701.898438 C 48.414062 1012.199219 224.699219 1305.328125 403.445312 1305.328125 C 403.6875 1305.328125 403.914062 1305.328125 404.15625 1305.328125 C 486.273438 1304.96875 562.640625 1242.988281 637.613281 1115.839844 C 713.167969 987.691406 779.738281 928.710938 841.050781 935.460938 C 958.410156 948.410156 1039.199219 1198.078125 1132.738281 1487.171875 C 1253.289062 1859.71875 1389.921875 2281.96875 1642.898438 2307.949219 C 1747.109375 2318.671875 1866.050781 2259.171875 1996.441406 2131.179688 C 2142.550781 1987.769531 2309.148438 1752.558594 2491.601562 1432.078125 C 2733.101562 1007.898438 2952.789062 806.289062 3163.101562 815.730469 C 3500.269531 830.859375 3755.050781 1389.519531 4001.441406 1929.789062 C 4233.699219 2439.050781 4453.191406 2920.308594 4723.980469 2920.308594 C 4726.179688 2920.308594 4728.378906 2920.28125 4730.589844 2920.21875 C 4947.601562 2913.949219 5177.109375 2591.332031 5432.230469 1933.898438 L 5435.71875 1935.261719 C 5180 2594.25 4949.390625 2917.648438 4730.691406 2923.96875 C 4728.46875 2924.03125 4726.210938 2924.058594 4723.988281 2924.058594 "/>
<path fill-rule="nonzero" fill="rgb(38.88855%, 50.424194%, 78.923035%)" fill-opacity="1" d="M 4783.019531 2939.488281 C 4503.878906 2939.488281 4276.078125 2463.75 4034.988281 1960.308594 C 3780.121094 1428.070312 3516.558594 877.699219 3173.859375 863.300781 C 3169.25 863.101562 3164.621094 863.011719 3160 863.011719 C 2952.078125 863.011719 2735.839844 1059.199219 2499.460938 1462.089844 C 2161.359375 2038.351562 1887.601562 2319.371094 1663.921875 2319.398438 C 1655.078125 2319.398438 1646.351562 2318.960938 1637.660156 2318.078125 C 1376.488281 2291.75 1233.789062 1874.539062 1107.898438 1506.449219 C 1010.960938 1223.03125 927.242188 978.261719 809.769531 965.480469 C 748.925781 958.890625 682.792969 1015.761719 607.605469 1139.441406 C 531.796875 1264.128906 453.871094 1325.050781 369.378906 1325.679688 C 368.949219 1325.691406 368.484375 1325.691406 368.058594 1325.691406 C 183.355469 1325.71875 0.851562 1035.390625 -192.375 728.039062 C -408.101562 384.921875 -631.210938 30.121094 -874.394531 55.339844 C -1061.058594 74.710938 -1237.769531 316.390625 -1414.628906 794.191406 L -1418.148438 792.878906 C -1240.75 313.609375 -1063.011719 71.140625 -874.78125 51.609375 C -629.167969 26.171875 -405.53125 381.949219 -189.203125 726.039062 C 3.445312 1032.460938 185.445312 1321.941406 368.054688 1321.941406 C 368.488281 1321.941406 368.914062 1321.941406 369.347656 1321.929688 C 452.4375 1321.308594 529.324219 1260.980469 604.402344 1137.488281 C 680.425781 1012.441406 747.71875 955.019531 810.175781 961.75 C 930.019531 974.789062 1014.089844 1220.601562 1111.449219 1505.230469 C 1236.980469 1872.261719 1379.261719 2288.25 1638.039062 2314.351562 C 1744.289062 2325.101562 1865.019531 2267.191406 1996.949219 2142.339844 C 2144.71875 2002.5 2312.699219 1772.980469 2496.21875 1460.191406 C 2738.621094 1047.050781 2960.160156 850.589844 3174.011719 859.550781 C 3518.96875 874.050781 3783.019531 1425.449219 4038.378906 1958.691406 C 4281.320312 2466.019531 4510.75 2945.421875 4791.308594 2935.601562 C 5011.53125 2928.058594 5242.308594 2612.960938 5496.820312 1972.28125 L 5500.308594 1973.660156 C 5245.191406 2615.871094 5013.308594 2931.75 4791.441406 2939.351562 C 4788.640625 2939.449219 4785.808594 2939.488281 4783.019531 2939.488281 "/>
<path fill-rule="nonzero" fill="rgb(74.902344%, 91.342163%, 86.663818%)" fill-opacity="1" d="M 4843.390625 2955.019531 C 4558.199219 2955.019531 4322.378906 2485.628906 4072.851562 1989 C 3808.839844 1463.53125 3535.839844 920.179688 3185.109375 906.421875 C 2969.558594 897.910156 2746.890625 1088.78125 2504.320312 1489.769531 C 2164.410156 2051.671875 1887.851562 2325.699219 1660.21875 2325.71875 C 1651 2325.71875 1641.878906 2325.269531 1632.820312 2324.371094 C 1365.730469 2297.910156 1217.289062 1886.820312 1086.308594 1524.109375 C 985.53125 1245.011719 898.492188 1003.96875 778.433594 991.101562 C 716.4375 984.410156 649.523438 1039.878906 573.851562 1160.539062 C 497.9375 1281.578125 419.511719 1340.859375 334.097656 1341.75 C 333.449219 1341.761719 332.789062 1341.761719 332.144531 1341.761719 C 143.550781 1341.78125 -44.804688 1055.011719 -244.191406 751.460938 C -467.613281 411.320312 -698.675781 59.601562 -947.992188 87.058594 C -1136.621094 107.820312 -1313.789062 343.71875 -1489.640625 808.230469 L -1493.148438 806.910156 C -1316.761719 340.949219 -1138.570312 104.269531 -948.402344 83.328125 C -696.769531 55.648438 -465.097656 408.320312 -241.058594 749.398438 C -42.246094 1052.070312 145.582031 1338.011719 332.140625 1338.011719 C 332.78125 1338.011719 333.417969 1338.011719 334.058594 1338 C 418.09375 1337.121094 495.492188 1278.421875 570.675781 1158.539062 C 647.183594 1036.550781 715.265625 980.5 778.832031 987.371094 C 901.222656 1000.488281 988.632812 1242.550781 1089.839844 1522.839844 C 1220.441406 1884.5 1368.449219 2294.421875 1633.191406 2320.640625 C 1741.460938 2331.378906 1864.058594 2275.070312 1997.570312 2153.300781 C 2147.050781 2016.960938 2316.460938 1793.070312 2501.109375 1487.828125 C 2744.449219 1085.558594 2968.089844 894.058594 3185.261719 902.671875 C 3538.199219 916.519531 3811.699219 1460.878906 4076.199219 1987.320312 C 4325.179688 2482.851562 4560.539062 2951.269531 4843.378906 2951.269531 C 4846.769531 2951.269531 4850.140625 2951.199219 4853.539062 2951.070312 C 5076.941406 2942.21875 5308.988281 2634.5 5562.949219 2010.339844 L 5566.429688 2011.75 C 5311.859375 2637.421875 5078.71875 2945.898438 4853.691406 2954.820312 C 4850.25 2954.949219 4846.800781 2955.019531 4843.390625 2955.019531 "/>
<path fill-rule="nonzero" fill="rgb(27.658081%, 34.73053%, 69.308472%)" fill-opacity="1" d="M 4905.101562 2970.671875 C 4613.71875 2970.671875 4369.75 2507.460938 4111.628906 2017.398438 C 3838.308594 1498.488281 3555.679688 961.910156 3196.699219 948.789062 C 2977.800781 940.761719 2753.019531 1126.640625 2509.460938 1516.960938 C 2167.679688 2064.679688 1888.230469 2331.839844 1656.621094 2331.871094 C 1646.988281 2331.871094 1637.480469 2331.410156 1628.019531 2330.488281 C 1354.859375 2303.910156 1200.558594 1898.75 1064.441406 1541.28125 C 959.753906 1266.390625 869.347656 1028.980469 746.640625 1016.011719 C 683.542969 1009.308594 615.769531 1063.300781 539.589844 1180.988281 C 463.558594 1298.449219 384.640625 1356.109375 298.324219 1357.269531 C 297.464844 1357.28125 296.570312 1357.289062 295.707031 1357.289062 C 103.121094 1357.320312 -91.167969 1073.980469 -296.847656 774.089844 C -528.183594 436.789062 -767.347656 88.039062 -1023.050781 117.75 C -1213.550781 139.910156 -1391.160156 370.101562 -1566.011719 821.488281 L -1569.511719 820.128906 C -1394.101562 367.328125 -1215.5 136.359375 -1023.480469 114.019531 C -765.5 84 -525.710938 433.761719 -293.753906 771.96875 C -88.671875 1070.988281 105.113281 1353.53125 295.707031 1353.53125 C 296.570312 1353.53125 297.410156 1353.53125 298.273438 1353.519531 C 383.238281 1352.378906 461.144531 1295.28125 536.441406 1178.949219 C 613.460938 1059.960938 682.316406 1005.410156 747.035156 1012.28125 C 872.03125 1025.488281 962.820312 1263.898438 1067.941406 1539.949219 C 1203.679688 1896.390625 1357.53125 2300.398438 1628.378906 2326.761719 C 1738.78125 2337.46875 1863.21875 2282.738281 1998.339844 2164.019531 C 2149.558594 2031.128906 2320.460938 1812.761719 2506.28125 1514.980469 C 2750.609375 1123.421875 2976.578125 937.140625 3196.839844 945.039062 C 3557.988281 958.238281 3841.128906 1495.800781 4114.949219 2015.648438 C 4376.128906 2511.511719 4622.941406 2979.710938 4917.289062 2966.640625 C 5143.839844 2956.460938 5377.160156 2656.019531 5630.589844 2048.140625 L 5634.039062 2049.578125 C 5380 2658.941406 5145.609375 2960.140625 4917.460938 2970.390625 C 4913.351562 2970.570312 4909.199219 2970.671875 4905.101562 2970.671875 "/>
<path fill-rule="nonzero" fill="rgb(70.892334%, 76.77002%, 91.229248%)" fill-opacity="1" d="M 4968.238281 2986.449219 C 4670.488281 2986.449219 4418.21875 2529.21875 4151.339844 2045.539062 C 3868.519531 1532.96875 3576.070312 1002.960938 3208.640625 990.480469 C 2986.210938 982.859375 2759.460938 1163.890625 2514.890625 1543.699219 C 2171.140625 2077.5 1888.761719 2337.871094 1653.109375 2337.898438 C 1643.058594 2337.910156 1633.140625 2337.429688 1623.261719 2336.488281 C 1343.851562 2309.78125 1183.621094 1910.390625 1042.25 1558 C 933.613281 1287.210938 839.792969 1053.351562 714.386719 1040.28125 C 650.128906 1033.589844 581.527344 1086.121094 504.816406 1200.898438 C 428.667969 1314.828125 349.261719 1370.890625 262.070312 1372.289062 C 260.972656 1372.300781 259.867188 1372.308594 258.769531 1372.308594 C 62.101562 1372.320312 -138.277344 1092.308594 -350.359375 795.960938 C -589.835938 461.351562 -837.472656 115.351562 -1099.601562 147.421875 C -1291.898438 170.960938 -1469.898438 395.558594 -1643.78125 834.03125 L -1647.261719 832.648438 C -1472.828125 392.78125 -1293.839844 167.421875 -1100.050781 143.699219 C -835.722656 111.328125 -587.421875 458.269531 -347.308594 793.78125 C -135.8125 1089.308594 64.039062 1368.558594 258.765625 1368.558594 C 259.855469 1368.558594 260.925781 1368.550781 262.011719 1368.539062 C 347.882812 1367.160156 426.285156 1311.648438 501.703125 1198.808594 C 579.253906 1082.769531 648.988281 1029.671875 714.777344 1036.558594 C 842.429688 1049.851562 936.644531 1284.691406 1045.730469 1556.609375 C 1186.699219 1907.988281 1346.480469 2306.269531 1623.609375 2332.761719 C 1736.078125 2343.488281 1862.480469 2290.28125 1999.25 2174.539062 C 2152.261719 2045.058594 2324.691406 1832.128906 2511.730469 1541.671875 C 2757.089844 1160.660156 2985.179688 979.191406 3208.761719 986.730469 C 3578.320312 999.28125 3871.300781 1530.25 4154.628906 2043.730469 C 4420.929688 2526.359375 4672.738281 2982.699219 4968.238281 2982.699219 C 4973.039062 2982.699219 4977.820312 2982.578125 4982.640625 2982.339844 C 5212.28125 2970.808594 5446.871094 2677.53125 5699.800781 2085.730469 L 5703.25 2087.199219 C 5449.691406 2680.449219 5214.039062 2974.46875 4982.828125 2986.078125 C 4977.96875 2986.328125 4973.078125 2986.449219 4968.238281 2986.449219 "/>
<path fill-rule="nonzero" fill="rgb(39.453125%, 80.526733%, 96.203613%)" fill-opacity="1" d="M 5032.800781 3002.339844 C 4728.558594 3002.339844 4467.800781 2550.890625 4192.019531 2073.421875 C 3899.488281 1566.980469 3597.011719 1043.300781 3220.878906 1031.460938 C 2995.121094 1024.300781 2766.210938 1200.5 2520.558594 1569.96875 C 2174.769531 2090.070312 1889.410156 2343.78125 1649.679688 2343.800781 C 1639.210938 2343.800781 1628.839844 2343.308594 1618.53125 2342.351562 C 1332.71875 2315.511719 1166.449219 1921.710938 1019.75 1574.269531 C 907.097656 1307.460938 809.804688 1077.03125 681.628906 1063.871094 C 616.128906 1057.109375 546.738281 1108.269531 469.480469 1220.171875 C 393.207031 1330.640625 313.328125 1385.128906 225.28125 1386.75 C 223.949219 1386.78125 222.601562 1386.789062 221.265625 1386.789062 C 20.425781 1386.808594 -186.140625 1110.011719 -404.765625 817.078125 C -652.609375 485 -908.839844 141.578125 -1177.691406 176.109375 C -1371.679688 201.019531 -1550.03125 420.078125 -1722.929688 845.808594 L -1726.410156 844.398438 C -1552.949219 417.300781 -1373.621094 197.488281 -1178.171875 172.390625 C -907.222656 137.558594 -650.25 481.878906 -401.761719 814.839844 C -182.277344 1108.921875 25.128906 1386.648438 225.210938 1383.011719 C 311.964844 1381.410156 390.855469 1327.449219 466.394531 1218.039062 C 544.503906 1104.898438 615.050781 1053.199219 682.011719 1060.140625 C 812.398438 1073.53125 910.089844 1304.898438 1023.210938 1572.808594 C 1169.5 1919.28125 1335.300781 2311.980469 1618.878906 2338.609375 C 1733.5 2349.351562 1861.828125 2297.628906 2000.289062 2184.839844 C 2155.128906 2058.710938 2329.121094 1851.128906 2517.441406 1567.890625 C 2763.871094 1197.25 2994.140625 1020.628906 3221 1027.710938 C 3599.210938 1039.621094 3902.230469 1564.21875 4195.261719 2071.550781 C 4475.589844 2556.859375 4740.398438 3015.339844 5049.621094 2998.128906 C 5282.300781 2985.238281 5518.140625 2699.011719 5770.601562 2123.070312 L 5774.03125 2124.570312 C 5520.949219 2701.929688 5284.058594 2988.898438 5049.828125 3001.871094 C 5044.140625 3002.179688 5038.460938 3002.339844 5032.800781 3002.339844 "/>
<path fill-rule="nonzero" fill="rgb(53.224182%, 84.735107%, 92.498779%)" fill-opacity="1" d="M 5098.820312 3018.390625 C 4787.910156 3018.390625 4518.519531 2572.539062 4233.648438 2101.070312 C 3931.230469 1600.558594 3618.519531 1083.019531 3233.488281 1071.800781 C 3004.5 1065.179688 2773.320312 1236.539062 2526.578125 1595.828125 C 2178.660156 2102.429688 1890.25 2349.570312 1646.410156 2349.578125 C 1635.46875 2349.578125 1624.640625 2349.078125 1613.890625 2348.089844 C 1321.480469 2321.121094 1149.058594 1932.75 996.933594 1590.109375 C 880.195312 1327.171875 779.378906 1100.089844 648.363281 1086.808594 C 581.683594 1080.070312 511.421875 1129.789062 433.59375 1238.859375 C 357.191406 1345.929688 276.851562 1398.878906 187.976562 1400.710938 C 186.398438 1400.75 184.808594 1400.761719 183.230469 1400.769531 C -21.871094 1400.78125 -234.753906 1127.089844 -460.054688 837.460938 C -716.519531 507.761719 -981.695312 166.839844 -1257.351562 203.820312 C -1452.949219 230.070312 -1631.609375 443.691406 -1803.558594 856.878906 L -1807.019531 855.441406 C -1634.519531 440.910156 -1454.878906 226.550781 -1257.851562 200.109375 C -980.046875 162.808594 -714.214844 504.621094 -457.09375 835.160156 C -230.65625 1126.25 -16.832031 1401.03125 187.898438 1396.96875 C 275.507812 1395.160156 354.875 1342.730469 430.542969 1236.691406 C 509.21875 1126.421875 580.589844 1076.140625 648.742188 1083.078125 C 781.921875 1096.578125 883.148438 1324.578125 1000.359375 1588.589844 C 1152.070312 1930.289062 1324.019531 2317.589844 1614.238281 2344.359375 C 1731.03125 2355.140625 1861.351562 2304.878906 2001.53125 2194.980469 C 2158.238281 2072.140625 2333.851562 1869.828125 2523.480469 1593.710938 C 2771.011719 1233.28125 3003.378906 1061.171875 3233.601562 1068.050781 C 3620.671875 1079.328125 3933.921875 1597.761719 4236.859375 2099.128906 C 4521.160156 2569.648438 4790.039062 3014.640625 5098.828125 3014.640625 C 5105.289062 3014.640625 5111.738281 3014.449219 5118.238281 3014.050781 C 5353.910156 2999.800781 5590.980469 2720.5 5843 2160.191406 L 5846.421875 2161.730469 C 5593.769531 2723.421875 5355.660156 3003.449219 5118.46875 3017.789062 C 5111.898438 3018.199219 5105.351562 3018.390625 5098.820312 3018.390625 "/>
<path fill-rule="nonzero" fill="rgb(68.788147%, 70.466614%, 85.28595%)" fill-opacity="1" d="M 5166.351562 3034.558594 C 4848.609375 3034.558594 4570.429688 2594.140625 4276.300781 2128.46875 C 3963.769531 1633.679688 3640.601562 1122.039062 3246.429688 1111.421875 C 3013.96875 1105.011719 2780.71875 1271.910156 2532.839844 1621.179688 C 2182.71875 2114.511719 1891.191406 2355.191406 1643.210938 2355.199219 C 1631.789062 2355.199219 1620.488281 2354.691406 1609.261719 2353.679688 C 1310.078125 2326.550781 1131.410156 1943.46875 973.777344 1605.46875 C 852.902344 1346.300781 748.511719 1122.480469 614.59375 1109.089844 C 546.722656 1102.328125 475.578125 1150.671875 397.160156 1256.941406 C 320.617188 1360.699219 239.808594 1412.121094 150.109375 1414.160156 C 148.292969 1414.199219 146.441406 1414.21875 144.625 1414.21875 C -64.851562 1414.25 -284.171875 1143.539062 -516.292969 857.070312 C -781.617188 529.628906 -1056 191.058594 -1338.609375 230.539062 C -1535.710938 258.089844 -1714.648438 466.339844 -1885.640625 867.171875 L -1889.089844 865.699219 C -1717.539062 463.550781 -1537.648438 254.578125 -1339.128906 226.828125 C -1054.390625 186.980469 -779.363281 526.460938 -513.378906 854.710938 C -281.867188 1140.429688 -63.042969 1410.46875 144.617188 1410.46875 C 146.4375 1410.46875 148.214844 1410.449219 150.027344 1410.410156 C 238.484375 1408.398438 318.335938 1357.46875 394.144531 1254.71875 C 473.410156 1147.289062 545.617188 1098.441406 614.96875 1105.359375 C 751.007812 1118.960938 855.816406 1343.679688 977.175781 1603.890625 C 1134.390625 1940.96875 1312.570312 2323.011719 1609.601562 2349.941406 C 1728.578125 2360.710938 1860.921875 2311.929688 2002.871094 2204.878906 C 2161.480469 2085.269531 2338.761719 1888.160156 2529.78125 1619.011719 C 2778.441406 1268.640625 3012.820312 1101.378906 3246.519531 1107.679688 C 3642.699219 1118.351562 3966.410156 1630.851562 4279.46875 2126.46875 C 4579.898438 2602.101562 4863.738281 3051.519531 5188.578125 3030.078125 C 5427.160156 3014.460938 5665.441406 2741.96875 5917.039062 2197.078125 L 5920.441406 2198.648438 C 5668.21875 2744.910156 5428.910156 3018.101562 5188.820312 3033.820312 C 5181.308594 3034.308594 5173.808594 3034.558594 5166.351562 3034.558594 "/>
<path fill-rule="nonzero" fill="rgb(54.325867%, 82.029724%, 93.092346%)" fill-opacity="1" d="M 5235.398438 3050.890625 C 4910.640625 3050.890625 4623.5 2615.730469 4319.921875 2155.671875 C 3997.070312 1666.410156 3663.238281 1160.488281 3259.691406 1150.460938 C 3024.160156 1144.480469 2788.449219 1306.738281 2539.378906 1646.179688 C 2187.019531 2126.390625 1892.320312 2360.710938 1640.148438 2360.71875 C 1628.21875 2360.71875 1616.421875 2360.199219 1604.679688 2359.160156 C 1298.550781 2331.871094 1113.511719 1953.898438 950.253906 1620.421875 C 825.171875 1364.921875 717.144531 1144.261719 580.269531 1130.761719 C 511.144531 1123.980469 439.144531 1170.960938 360.121094 1274.5 C 283.433594 1374.980469 202.167969 1424.898438 111.679688 1427.109375 C 109.613281 1427.160156 107.523438 1427.179688 105.453125 1427.179688 C -108.484375 1427.199219 -334.40625 1159.371094 -573.480469 875.96875 C -847.933594 550.640625 -1131.691406 214.21875 -1421.539062 256.320312 C -1620.050781 285.140625 -1799.210938 488.089844 -1969.25 876.78125 L -1972.691406 875.269531 C -1802.078125 485.300781 -1621.96875 281.628906 -1422.078125 252.609375 C -1130.210938 210.25 -845.730469 547.441406 -570.617188 873.558594 C -332.132812 1156.25 -106.730469 1423.429688 105.449219 1423.429688 C 107.503906 1423.429688 109.539062 1423.410156 111.585938 1423.359375 C 200.867188 1421.179688 281.1875 1371.738281 357.140625 1272.21875 C 437.015625 1167.558594 510.101562 1120.070312 580.636719 1127.019531 C 719.597656 1140.730469 828.046875 1362.261719 953.621094 1618.769531 C 1116.441406 1951.359375 1300.980469 2328.320312 1605.019531 2355.421875 C 1726.261719 2366.199219 1860.621094 2318.851562 2004.378906 2214.628906 C 2164.941406 2098.21875 2343.921875 1906.21875 2536.359375 1643.960938 C 2786.199219 1303.46875 3022.898438 1140.921875 3259.78125 1146.710938 C 3665.289062 1156.800781 3999.671875 1663.539062 4323.050781 2153.601562 C 4633.921875 2624.710938 4927.648438 3069.640625 5260.628906 3046.261719 C 5502.070312 3029.269531 5741.539062 2763.519531 5992.738281 2233.808594 L 5996.128906 2235.421875 C 5744.300781 2766.460938 5503.800781 3032.910156 5260.890625 3050 C 5252.378906 3050.601562 5243.859375 3050.890625 5235.398438 3050.890625 "/>
<path fill-rule="nonzero" fill="rgb(65.065002%, 88.557434%, 93.611145%)" fill-opacity="1" d="M 5306.039062 3067.378906 C 4974.109375 3067.378906 4677.78125 2637.261719 4364.570312 2182.628906 C 4031.179688 1698.710938 3686.441406 1198.308594 3273.289062 1188.808594 C 3269.269531 1188.71875 3265.230469 1188.679688 3261.21875 1188.679688 C 3026.320312 1188.679688 2792.308594 1346.488281 2546.230469 1670.699219 C 2174.28125 2160.75 1864.878906 2387.800781 1600.171875 2364.480469 C 1286.890625 2337.019531 1095.378906 1964.011719 926.410156 1634.921875 C 797.054688 1382.96875 685.339844 1165.390625 545.421875 1151.761719 C 475.078125 1144.910156 402.15625 1190.601562 322.496094 1291.449219 C 245.652344 1388.738281 163.933594 1437.179688 72.664062 1439.550781 C 70.347656 1439.609375 68.019531 1439.628906 65.699219 1439.628906 C -152.804688 1439.640625 -385.46875 1174.578125 -631.652344 894.121094 C -915.488281 570.78125 -1208.941406 236.421875 -1506.171875 281.101562 C -1705.96875 311.140625 -1885.308594 508.878906 -2054.429688 885.621094 L -2057.851562 884.089844 C -1888.171875 506.089844 -1707.890625 307.640625 -1506.71875 277.390625 C -1207.519531 232.410156 -913.332031 567.550781 -628.835938 891.648438 C -383.238281 1171.441406 -151.097656 1435.878906 65.699219 1435.878906 C 67.996094 1435.878906 70.269531 1435.859375 72.566406 1435.800781 C 162.652344 1433.460938 243.441406 1385.480469 319.554688 1289.121094 C 400.066406 1187.191406 474.085938 1141.03125 545.785156 1148.03125 C 687.738281 1161.859375 799.886719 1380.28125 929.746094 1633.199219 C 1098.269531 1961.441406 1289.28125 2333.460938 1600.488281 2360.75 C 1723.988281 2371.589844 1860.449219 2325.621094 2006.050781 2224.160156 C 2168.589844 2110.898438 2349.320312 1923.929688 2543.238281 1668.441406 C 2794.300781 1337.660156 3033.179688 1179.339844 3273.371094 1185.070312 C 3688.441406 1194.609375 4033.730469 1695.800781 4367.660156 2180.5 C 4689.261719 2647.300781 4993.238281 3088.28125 5334.480469 3062.570312 C 5578.710938 3044.230469 5819.351562 2785.089844 6070.160156 2270.351562 L 6073.53125 2271.988281 C 5822.089844 2788.039062 5580.441406 3047.859375 5334.769531 3066.308594 C 5325.160156 3067.03125 5315.578125 3067.378906 5306.039062 3067.378906 "/>
<path fill-rule="nonzero" fill="rgb(65.065002%, 88.557434%, 93.611145%)" fill-opacity="1" d="M 5378.28125 3084.03125 C 5038.980469 3084.03125 4733.308594 2658.800781 4410.25 2209.398438 C 4066.101562 1730.648438 3710.230469 1235.589844 3287.238281 1226.589844 C 3283.300781 1226.511719 3279.339844 1226.46875 3275.398438 1226.46875 C 3037.140625 1226.46875 2800.828125 1379.808594 2553.371094 1694.851562 C 2178.410156 2172.21875 1865.171875 2393 1595.699219 2369.71875 C 1275.089844 2342.050781 1076.980469 1973.859375 902.183594 1649.019531 C 768.480469 1400.539062 653.011719 1185.949219 509.988281 1172.179688 C 438.40625 1165.261719 364.5625 1209.671875 284.253906 1307.859375 C 207.242188 1402.011719 125.074219 1449 33.042969 1451.5 C 30.496094 1451.558594 27.914062 1451.601562 25.367188 1451.601562 C -197.828125 1451.628906 -437.359375 1189.210938 -690.824219 911.558594 C -984.3125 590.078125 -1287.789062 257.660156 -1592.511719 304.960938 C -1793.5 336.171875 -1972.96875 528.761719 -2141.148438 893.730469 L -2144.550781 892.160156 C -1975.800781 525.960938 -1795.421875 332.671875 -1593.078125 301.25 C -1286.359375 253.640625 -982.210938 586.820312 -688.058594 909.03125 C -435.179688 1186.03125 -196.164062 1447.851562 25.359375 1447.851562 C 27.890625 1447.851562 30.414062 1447.820312 32.941406 1447.75 C 123.816406 1445.28125 205.070312 1398.738281 281.351562 1305.480469 C 362.511719 1206.25 437.421875 1161.460938 510.347656 1168.449219 C 655.367188 1182.410156 771.273438 1397.820312 905.484375 1647.238281 C 1079.828125 1971.25 1277.429688 2338.488281 1596.03125 2365.980469 C 1721.800781 2376.820312 1860.378906 2332.28125 2007.871094 2233.550781 C 2172.441406 2123.378906 2354.980469 1941.359375 2550.421875 1692.539062 C 2802.738281 1371.289062 3043.941406 1217.5 3287.308594 1222.839844 C 3712.179688 1231.890625 4068.609375 1727.710938 4413.300781 2207.210938 C 4745.890625 2669.878906 5060.210938 3106.820312 5410.140625 3079.011719 C 5657.078125 3059.351562 5898.871094 2806.730469 6149.320312 2306.71875 L 6152.671875 2308.398438 C 5901.578125 2809.679688 5658.800781 3062.96875 5410.441406 3082.75 C 5399.691406 3083.601562 5388.960938 3084.03125 5378.28125 3084.03125 "/>
<path fill-rule="nonzero" fill="rgb(48.149109%, 59.028625%, 83.395386%)" fill-opacity="1" d="M 5452.160156 3100.851562 C 5105.308594 3100.851562 4790.101562 2680.328125 4457 2235.96875 C 4101.851562 1762.199219 3734.621094 1272.308594 3301.539062 1263.75 C 3297.671875 1263.671875 3293.769531 1263.628906 3289.910156 1263.628906 C 3048.289062 1263.628906 2809.671875 1412.570312 2560.800781 1718.578125 C 2182.738281 2183.480469 1865.679688 2398.148438 1591.300781 2374.808594 C 1263.160156 2346.921875 1058.320312 1983.398438 877.601562 1662.671875 C 739.480469 1417.558594 620.199219 1205.878906 474 1191.960938 C 401.144531 1185.019531 326.371094 1228.121094 245.382812 1323.699219 C 168.199219 1414.800781 85.578125 1460.351562 -7.199219 1462.960938 C -9.984375 1463.039062 -12.78125 1463.078125 -15.570312 1463.078125 C -243.546875 1463.089844 -490.132812 1203.21875 -751.023438 928.28125 C -1054.449219 608.53125 -1368.171875 277.871094 -1680.640625 327.851562 C -1882.71875 360.171875 -2062.261719 547.691406 -2229.53125 901.121094 L -2232.921875 899.519531 C -2065.089844 544.890625 -1884.628906 356.679688 -1681.230469 324.148438 C -1366.828125 273.878906 -1052.398438 605.238281 -748.304688 925.699219 C -487.996094 1200.019531 -241.925781 1459.328125 -15.578125 1459.328125 C -12.808594 1459.328125 -10.070312 1459.289062 -7.308594 1459.210938 C 84.347656 1456.628906 166.066406 1411.511719 242.523438 1321.28125 C 324.363281 1224.691406 400.214844 1181.171875 474.351562 1188.230469 C 622.503906 1202.328125 742.230469 1414.808594 880.867188 1660.839844 C 1061.128906 1980.75 1265.449219 2343.351562 1591.621094 2371.078125 C 1719.738281 2381.988281 1860.449219 2338.789062 2009.859375 2242.75 C 2176.488281 2135.640625 2360.871094 1958.488281 2557.890625 1716.21875 C 2811.519531 1404.359375 3054.96875 1255.230469 3301.609375 1260 C 3736.519531 1268.589844 4104.320312 1759.230469 4460 2233.71875 C 4803.878906 2692.460938 5128.609375 3125.710938 5487.648438 3095.609375 C 5737.21875 3074.660156 5980.121094 2828.449219 6230.230469 2342.949219 L 6233.558594 2344.671875 C 5982.820312 2831.410156 5738.929688 3078.269531 5487.960938 3099.351562 C 5476 3100.351562 5464.050781 3100.851562 5452.160156 3100.851562 "/>
<path fill-rule="nonzero" fill="rgb(42.1875%, 81.37207%, 95.640564%)" fill-opacity="1" d="M 5527.75 3117.851562 C 5173.148438 3117.851562 4848.199219 2701.890625 4504.820312 2262.371094 C 4138.460938 1793.410156 3759.609375 1308.5 3316.21875 1300.328125 C 3067.378906 1295.648438 2822.761719 1440.199219 2568.558594 1741.949219 C 2206.511719 2171.75 1898.691406 2381.550781 1629.488281 2381.570312 C 1615.191406 2381.570312 1601.050781 2380.980469 1586.980469 2379.808594 C 1251.089844 2351.648438 1039.390625 1992.660156 852.617188 1675.921875 C 710.003906 1434.078125 586.839844 1225.21875 437.394531 1211.140625 C 363.21875 1204.171875 287.535156 1245.988281 205.859375 1339 C 128.492188 1427.109375 45.425781 1471.25 -48.09375 1473.949219 C -51.09375 1474.03125 -54.113281 1474.078125 -57.121094 1474.078125 C -289.992188 1474.089844 -543.773438 1216.648438 -812.269531 944.308594 C -1125.921875 626.171875 -1450.261719 297.199219 -1770.570312 349.820312 C -1973.628906 383.191406 -2153.199219 565.699219 -2319.550781 907.789062 L -2322.921875 906.148438 C -2156 562.878906 -1975.53125 379.699219 -1771.179688 346.121094 C -1448.941406 293.171875 -1123.921875 622.851562 -809.601562 941.679688 C -541.683594 1213.429688 -288.410156 1470.328125 -57.125 1470.328125 C -54.136719 1470.328125 -51.179688 1470.28125 -48.199219 1470.199219 C 44.214844 1467.539062 126.398438 1423.808594 203.042969 1336.53125 C 285.574219 1242.539062 362.328125 1200.300781 437.742188 1207.410156 C 589.097656 1221.671875 712.714844 1431.289062 855.847656 1674.019531 C 1042.160156 1989.96875 1253.328125 2348.070312 1587.289062 2376.070312 C 1717.75 2387.050781 1860.660156 2345.199219 2012.03125 2251.808594 C 2180.769531 2147.699219 2367.039062 1975.351562 2565.691406 1739.539062 C 2820.660156 1436.859375 3066.03125 1291.828125 3316.28125 1296.578125 C 3761.46875 1304.789062 4140.871094 1790.421875 4507.78125 2260.058594 C 4863.238281 2715.058594 5198.871094 3144.738281 5567.070312 3112.378906 C 5819.191406 3090.160156 6063.171875 2850.289062 6312.941406 2379.050781 L 6316.25 2380.808594 C 6065.839844 2853.25 5820.878906 3093.769531 5567.398438 3116.109375 C 5554.160156 3117.28125 5540.910156 3117.851562 5527.75 3117.851562 "/>
<path fill-rule="nonzero" fill="rgb(50.273132%, 69.776917%, 80.148315%)" fill-opacity="1" d="M 5605.089844 3135.050781 C 5242.550781 3135.050781 4907.609375 2723.429688 4553.761719 2288.601562 C 4175.929688 1824.289062 3785.230469 1344.191406 3331.25 1336.320312 C 3327.460938 1336.261719 3323.640625 1336.230469 3319.828125 1336.230469 C 3071.578125 1336.230469 2828.328125 1476.570312 2576.589844 1764.929688 C 2211.960938 2182.589844 1900.769531 2386.5 1627.25 2386.511719 C 1612.269531 2386.511719 1597.421875 2385.898438 1582.660156 2384.671875 C 1238.839844 2356.230469 1020.171875 2001.621094 827.238281 1688.769531 C 680.070312 1450.109375 552.964844 1243.988281 400.203125 1229.738281 C 324.820312 1222.710938 248.101562 1263.28125 165.703125 1353.78125 C 88.136719 1438.960938 4.613281 1481.710938 -89.628906 1484.460938 C -92.828125 1484.558594 -96.054688 1484.609375 -99.261719 1484.609375 C -337.148438 1484.621094 -598.292969 1229.511719 -874.574219 959.621094 C -1198.730469 642.988281 -1533.910156 315.570312 -1862.308594 370.859375 C -2066.25 405.191406 -2245.800781 582.78125 -2411.25 913.769531 L -2414.601562 912.089844 C -2248.589844 579.960938 -2068.128906 401.710938 -1862.929688 367.160156 C -1532.628906 311.558594 -1196.78125 639.648438 -871.957031 956.941406 C -596.25 1226.261719 -335.609375 1480.859375 -99.269531 1480.859375 C -96.082031 1480.859375 -92.917969 1480.808594 -89.738281 1480.710938 C 3.433594 1477.988281 86.085938 1435.640625 162.929688 1351.25 C 246.175781 1259.828125 323.890625 1218.871094 400.550781 1226.011719 C 555.175781 1240.429688 682.734375 1447.28125 830.433594 1686.800781 C 1022.898438 1998.898438 1241.039062 2352.640625 1582.96875 2380.941406 C 1715.820312 2391.949219 1860.941406 2351.480469 2014.320312 2260.710938 C 2185.210938 2159.570312 2373.429688 1991.929688 2573.761719 1762.460938 C 2830.128906 1468.800781 3077.960938 1328.140625 3331.320312 1332.570312 C 3787.039062 1340.460938 4178.300781 1821.261719 4556.671875 2286.230469 C 4924.019531 2737.660156 5271.050781 3163.988281 5648.429688 3129.308594 C 5903.019531 3105.871094 6148.039062 2872.230469 6397.511719 2415.03125 L 6400.800781 2416.832031 C 6150.691406 2875.210938 5904.699219 3109.480469 5648.769531 3133.039062 C 5634.191406 3134.390625 5619.601562 3135.050781 5605.089844 3135.050781 "/>
<path fill-rule="nonzero" fill="rgb(63.525391%, 64.363098%, 85.398865%)" fill-opacity="1" d="M 5684.191406 3152.429688 C 5313.5 3152.429688 4968.351562 2745 4603.78125 2314.660156 C 4214.25 1854.851562 3811.460938 1379.398438 3346.691406 1371.769531 C 3342.890625 1371.710938 3339.039062 1371.679688 3335.230469 1371.679688 C 3083.699219 1371.679688 2838.171875 1507.808594 2584.949219 1787.550781 C 2217.71875 2193.25 1903.128906 2391.328125 1625.269531 2391.339844 C 1609.539062 2391.351562 1593.949219 2390.710938 1578.449219 2389.449219 C 1226.46875 2360.660156 1000.679688 2010.300781 801.46875 1701.191406 C 649.652344 1465.609375 518.535156 1262.148438 362.375 1247.710938 C 285.703125 1240.609375 207.988281 1279.960938 124.847656 1367.96875 C 40.667969 1457.078125 -48.617188 1494.71875 -141.964844 1494.738281 C -384.972656 1494.769531 -655.804688 1239.820312 -937.996094 974.230469 C -1272.941406 658.988281 -1619.308594 333 -1955.929688 390.941406 C -2160.628906 426.171875 -2340.128906 598.898438 -2504.671875 918.988281 L -2508.011719 917.28125 C -2342.890625 596.058594 -2162.511719 422.691406 -1956.558594 387.25 C -1618.089844 329.03125 -1271.039062 655.621094 -935.425781 971.5 C -546.242188 1337.789062 -178.640625 1683.78125 122.121094 1365.390625 C 206.105469 1276.488281 284.832031 1236.800781 362.71875 1243.980469 C 520.695312 1258.589844 652.269531 1462.75 804.625 1699.160156 C 1003.359375 2007.539062 1228.621094 2357.070312 1578.75 2385.710938 C 1714.03125 2396.769531 1861.398438 2357.660156 2016.820312 2269.46875 C 2189.898438 2171.261719 2380.109375 2008.269531 2582.171875 1785.039062 C 2839.980469 1500.21875 3090.050781 1363.710938 3346.75 1368.019531 C 3813.230469 1375.671875 4216.578125 1851.789062 4606.648438 2312.238281 C 4986.210938 2760.28125 5344.800781 3183.441406 5731.730469 3146.410156 C 5988.710938 3121.808594 6234.761719 2894.300781 6483.921875 2450.890625 L 6487.191406 2452.71875 C 6237.378906 2897.289062 5990.378906 3125.421875 5732.089844 3150.140625 C 5716.089844 3151.679688 5700.089844 3152.429688 5684.191406 3152.429688 "/>
</svg>
